<?xml version="1.0"?>
<svg xmlns="http://www.w3.org/2000/svg" xmlns:xlink="http://www.w3.org/1999/xlink" xmlns:svgjs="http://svgjs.com/svgjs" version="1.1" width="512" height="512" x="0" y="0" viewBox="0 0 508.406 508.406" style="enable-background:new 0 0 512 512" xml:space="preserve"className=""><g><g xmlns="http://www.w3.org/2000/svg"><path d="m488.326 34.505-14.435-14.436c-26.748-26.746-70.27-26.746-97.018 0l-29.389 29.389c-23.344 23.345-26.612 59.33-8.747 86.264l-21.22 21.22c-10.24-6.782-22.032-10.656-34.492-11.247-4.124-.213-7.65 2.997-7.847 7.136-.197 4.137 2.998 7.65 7.136 7.847 8.688.413 16.955 2.869 24.315 7.153l-12.668 12.669c-4.468-1.889-9.284-2.891-14.209-2.891-9.777 0-18.969 3.807-25.883 10.719l-8.693 8.693-12.02-12.02 8.693-8.693c3.848-3.849 8.249-7.08 13.081-9.606 3.671-1.919 5.091-6.45 3.172-10.121s-6.449-5.09-10.121-3.172c-6.183 3.231-11.813 7.367-16.739 12.292l-9.014 9.014c-5.67 5.673-5.67 14.902.001 20.574l12.66 12.66c2.836 2.835 6.561 4.252 10.286 4.252s7.451-1.418 10.288-4.253l9.012-9.013c4.08-4.079 9.506-6.326 15.276-6.326 1.445 0 2.873.151 4.268.43-1.177 2.86-1.794 5.95-1.794 9.135 0 6.409 2.496 12.435 7.028 16.968 4.679 4.678 10.822 7.016 16.967 7.016 3.105 0 6.21-.602 9.127-1.797.346 1.714.496 3.479.417 5.27-.236 5.385-2.641 10.625-6.772 14.756l-8.546 8.546c-5.669 5.672-5.669 14.901.002 20.574l12.658 12.658c2.748 2.748 6.401 4.262 10.288 4.262 3.886 0 7.54-1.513 10.288-4.261l9.013-9.013c23.346-23.347 26.638-59.349 8.768-86.285l21.193-21.193c11.499 7.629 24.646 11.411 37.76 11.411 17.604 0 35.141-6.796 48.521-20.176l9.316-9.316c2.929-2.93 2.929-7.678 0-10.607-2.93-2.928-7.678-2.928-10.607 0l-9.316 9.317c-17.494 17.497-44.077 20.576-64.785 8.482l12.67-12.67c4.471 1.887 9.289 2.888 14.214 2.888 9.775 0 18.967-3.807 25.882-10.72l29.389-29.39c14.27-14.271 14.27-37.492 0-51.764l-14.436-14.435c-6.914-6.913-16.105-10.72-25.881-10.72s-18.967 3.807-25.882 10.721l-29.388 29.388c-10.565 10.565-13.457 26.609-7.822 40.083l-12.68 12.681c-12.089-20.708-9.014-47.289 8.482-64.784l29.389-29.389c20.897-20.9 54.904-20.898 75.804-.001l14.435 14.436c20.059 20.058 21.004 52.348 2.151 73.511-2.755 3.093-2.481 7.833.612 10.589 3.092 2.756 7.833 2.482 10.589-.612 24.132-27.09 22.926-68.422-2.747-94.093zm-188.465 174.03c-1.699-1.699-2.636-3.958-2.636-6.36 0-2.403.936-4.662 2.636-6.36l79.773-79.775c1.754-1.754 4.058-2.631 6.361-2.631s4.607.877 6.36 2.631c1.699 1.699 2.636 3.958 2.636 6.36 0 2.403-.936 4.662-2.635 6.36 0 0 0 0-.001 0l-79.773 79.775c-3.507 3.508-9.215 3.508-12.721 0zm32.227 58.011-8.693 8.693-12.021-12.021 8.226-8.225c6.789-6.79 10.75-15.564 11.151-24.705.242-5.509-.745-10.894-2.845-15.863l12.667-12.667c12.089 20.71 9.01 47.293-8.485 64.788zm48.633-183.855 29.387-29.388c4.081-4.08 9.506-6.327 15.275-6.327s11.194 2.247 15.274 6.327l14.435 14.434c8.423 8.423 8.423 22.129 0 30.551l-29.388 29.389c-4.081 4.08-9.506 6.327-15.275 6.327-1.105 0-2.201-.088-3.281-.252 1.857-3.449 2.844-7.325 2.844-11.352 0-6.409-2.496-12.435-7.028-16.968-7.641-7.639-19.19-9.033-28.265-4.197-.999-6.637 1.081-13.603 6.022-18.544z" fill="#ae1414" data-original="#000000" style=""className=""/><path d="m273.526 300.427c-5.674-5.672-14.9-5.672-20.574 0l-8.545 8.545c-4.131 4.132-9.371 6.536-14.755 6.772-1.491.067-2.963-.029-4.404-.257 1.742-3.364 2.67-7.116 2.67-11.013 0-6.41-2.496-12.436-7.028-16.968-4.533-4.532-10.559-7.028-16.968-7.028-3.886 0-7.627.923-10.983 2.654-1.04-6.676 1.045-13.704 6.016-18.676l9.013-9.013c5.672-5.673 5.672-14.902 0-20.575l-12.658-12.658c-2.748-2.748-6.401-4.262-10.288-4.262-3.886 0-7.54 1.513-10.288 4.261l-9.013 9.013c-23.346 23.347-26.638 59.349-8.768 86.286l-21.186 21.187c-26.85-17.801-62.778-14.576-86.115 8.606-2.939 2.92-2.955 7.668-.036 10.606 1.467 1.477 3.394 2.215 5.321 2.215 1.911 0 3.822-.726 5.285-2.179 17.488-17.371 44.01-20.397 64.651-8.355l-12.675 12.675c-4.469-1.891-9.284-2.894-14.208-2.894-9.775 0-18.967 3.807-25.882 10.721l-29.388 29.388c-14.271 14.271-14.271 37.492-.001 51.765l14.436 14.435c6.914 6.913 16.105 10.72 25.881 10.72s18.967-3.807 25.882-10.72l29.389-29.39c10.566-10.567 13.468-26.617 7.831-40.093l12.671-12.671c12.09 20.708 9.013 47.29-8.483 64.785l-29.389 29.389c-10.123 10.124-23.584 15.7-37.901 15.7s-27.778-5.576-37.901-15.7l-14.435-14.437c-20.899-20.898-20.899-54.904 0-75.803l6.927-6.927c2.929-2.93 2.929-7.678 0-10.607-2.93-2.928-7.678-2.928-10.607 0l-6.927 6.927c-12.957 12.957-20.093 30.185-20.093 48.509s7.136 35.552 20.093 48.509l14.435 14.435c12.957 12.957 30.185 20.093 48.509 20.093s35.552-7.136 48.509-20.093l29.389-29.389c23.347-23.348 26.639-59.35 8.769-86.286l21.189-21.189c11.499 7.628 24.644 11.41 37.76 11.41 17.603 0 35.143-6.797 48.521-20.175l9.013-9.013c5.672-5.673 5.672-14.901 0-20.574zm-97.198-58.597 8.693-8.693 12.02 12.021-8.693 8.693c-10.566 10.567-13.468 26.618-7.831 40.094l-12.673 12.673c-12.09-20.71-9.011-47.294 8.484-64.788zm-58.542 136.058 79.775-79.775c1.698-1.699 3.957-2.635 6.36-2.635 2.402 0 4.661.937 6.361 2.636 1.699 1.699 2.635 3.957 2.635 6.36 0 2.402-.937 4.661-2.636 6.36l-79.774 79.774c-3.505 3.508-9.215 3.51-12.722 0-3.507-3.506-3.506-9.213.001-12.72zm9.913 47.792-29.388 29.389c-4.081 4.08-9.506 6.327-15.275 6.327s-11.194-2.247-15.274-6.327l-14.435-14.434c-8.423-8.424-8.422-22.129.001-30.552l29.387-29.388c4.081-4.08 9.506-6.327 15.275-6.327 1.397 0 2.777.148 4.129.411-3.75 8.756-2.076 19.301 5.06 26.437 4.679 4.678 10.823 7.017 16.968 7.017 3.218 0 6.43-.658 9.438-1.941 1.315 6.885-.736 14.238-5.886 19.388zm138.868-93.612c-17.496 17.496-44.08 20.574-64.788 8.484l12.667-12.667c4.967 2.099 10.351 3.081 15.864 2.846 9.141-.401 17.914-4.362 24.704-11.151l8.225-8.226 12.021 12.021z" fill="#ae1414" data-original="#000000" style=""className=""/><path d="m171.841 118.785c2.796 3.69 6.955 5.712 11.334 5.712 1.549 0 3.125-.253 4.678-.774 5.941-1.997 9.78-7.337 9.78-13.605v-55.09c0-3.927-1.556-7.593-4.38-10.322-2.827-2.732-6.553-4.137-10.475-4.03-15.423.525-29.276 5.737-41.176 15.491-5.951 4.879-6.948 13.538-2.27 19.714zm10.792-63.092v52.498l-30.968-40.872c9.114-7.295 19.258-11.103 30.968-11.626z" fill="#ae1414" data-original="#000000" style=""className=""/><path d="m58.239 200.477c.461 0 .928-.022 1.396-.066l53.59-5.072c6.239-.591 11.194-4.916 12.622-11.02 1.428-6.103-1.094-12.178-6.424-15.476 0 0 0 0-.001 0l-46.849-28.982c-3.34-2.066-7.277-2.671-11.082-1.706-3.811.967-6.984 3.378-8.938 6.788-7.669 13.394-10.524 27.917-8.489 43.167.958 7.166 7.048 12.367 14.175 12.367zm57.239-25.256-3.941 6.381c-.001-.001-.003-.002-.004-.003zm-50.229-22.253 44.646 27.619-51.051 4.832c-1.409-11.587.688-22.217 6.405-32.451z" fill="#ae1414" data-original="#000000" style=""className=""/><path d="m98.112 108.159c1.482 1.666 3.54 2.516 5.607 2.516 1.772 0 3.553-.625 4.981-1.896 3.095-2.753 3.372-7.494.62-10.589l-13.203-14.846c-2.754-3.095-7.493-3.372-10.589-.62-3.095 2.753-3.372 7.494-.62 10.589z" fill="#ae1414" data-original="#000000" style=""className=""/><path d="m233.553 91.624c.973.423 1.986.623 2.983.623 2.896 0 5.656-1.688 6.883-4.515l10.004-23.036c1.65-3.799-.092-8.217-3.892-9.866-3.798-1.651-8.218.092-9.866 3.892l-10.004 23.036c-1.65 3.798.092 8.216 3.892 9.866z" fill="#ae1414" data-original="#000000" style=""className=""/><path d="m82.301 229.118-23.037 10.003c-3.799 1.65-5.542 6.067-3.893 9.867 1.228 2.826 3.986 4.515 6.884 4.515.997 0 2.011-.2 2.983-.622l23.037-10.003c3.799-1.65 5.542-6.067 3.893-9.867-1.65-3.799-6.07-5.543-9.867-3.893z" fill="#ae1414" data-original="#000000" style=""className=""/><path d="m453.366 310.761h-55.089c-6.269 0-11.608 3.839-13.605 9.78-1.996 5.941-.059 12.227 4.938 16.012l42.904 32.509c2.616 1.981 5.677 2.944 8.708 2.944 4.124 0 8.193-1.784 11.005-5.215 9.755-11.899 14.967-25.753 15.492-41.176.133-3.928-1.298-7.648-4.03-10.475-2.73-2.823-6.396-4.379-10.323-4.379zm-12.291 45.968-40.871-30.968h52.497c-.522 11.71-4.33 21.853-11.626 30.968z" fill="#ae1414" data-original="#000000" style=""className=""/><path d="m339.551 388.971c0-.001 0-.001 0 0-3.297-5.329-9.371-7.854-15.476-6.425-6.104 1.428-10.429 6.383-11.02 12.622l-5.072 53.59c-.729 7.713 4.673 14.552 12.301 15.569 3.179.425 6.325.637 9.438.637 11.817 0 23.128-3.055 33.729-9.125 3.41-1.953 5.821-5.127 6.788-8.938.966-3.808.359-7.743-1.706-11.081zm-16.575 60.58 4.832-51.051 27.619 44.646c-10.234 5.716-20.863 7.814-32.451 6.405z" fill="#ae1414" data-original="#000000" style=""className=""/><path d="m425.05 412.277-14.846-13.204c-3.096-2.753-7.836-2.474-10.589.62-2.752 3.095-2.475 7.836.62 10.589l14.846 13.204c1.429 1.271 3.209 1.896 4.981 1.896 2.067 0 4.125-.85 5.607-2.516 2.753-3.095 2.476-7.836-.619-10.589z" fill="#ae1414" data-original="#000000" style=""className=""/><path d="m423.653 279.356c.997 0 2.011-.2 2.983-.623l23.036-10.004c3.8-1.649 5.542-6.067 3.892-9.866-1.65-3.801-6.068-5.544-9.866-3.892l-23.036 10.004c-3.8 1.649-5.542 6.067-3.892 9.866 1.228 2.828 3.986 4.515 6.883 4.515z" fill="#ae1414" data-original="#000000" style=""className=""/><path d="m275.384 416.226c-3.803-1.647-8.218.094-9.867 3.893l-10.003 23.037c-1.649 3.8.094 8.217 3.893 9.867.974.422 1.986.622 2.983.622 2.896 0 5.656-1.688 6.884-4.515l10.003-23.037c1.649-3.799-.094-8.216-3.893-9.867z" fill="#ae1414" data-original="#000000" style=""className=""/></g></g></svg>
