<?xml version="1.0" encoding="utf-8"?>
<!-- Generator: Adobe Illustrator 22.1.0, SVG Export Plug-In . SVG Version: 6.00 Build 0)  -->
<svg version="1.1" id="Calque_1" xmlns="http://www.w3.org/2000/svg" xmlns:xlink="http://www.w3.org/1999/xlink" x="0px" y="0px"
	 viewBox="0 0 138.7 164" style="enable-background:new 0 0 138.7 164;" xml:space="preserve">
<style type="text/css">
	.st0{opacity:0.8;}
	.st1{fill:none;stroke:#76777E;}
	.st2{fill:url(#Soustraction_4_1_);}
</style>
<g id="quentin" transform="translate(3297.296 2724.975)">
	<g id="Groupe_1" class="st0">
		<path id="Forme_124" class="st1" d="M-3213.3-2597.6c0,0,19.9,6.7,26.8,2.7c6.8-4,6.5-4.2,7.8-10s3.9-15.3,4.7-17.8
			s1.6-8.6,2.1-15.2s2.6-10.8,0.5-16.3s-4-8.4-4.2-11.5s0.6-10.6-1.6-13.6s-2.2-5.7-2.6-6.8c0,0-0.5-2.3,1.6-1.6
			c0,0-2.4-2.3-2.6-3.1c-0.2-0.9,2.6,0,2.6,0s-5.3-6.2-5.2-7.3l2.6,1c0,0-4-4.5-4.7-5.2c0.2-2.1,2.1-3.6,4.2-3.4
			c0.3,0,0.7,0.1,1,0.2c-1.6-1.3-2.9-2.9-4-4.6c2.4-0.1,4.8-0.3,7.1-0.7c-1.8-1.2-3.8-2.2-5.7-3.1c-4.2-1.9-9.7-3.9-12-5.2
			c-4.1-2.3-10.8-7.2-24.6-4.7c-13.7,2.5-14.4,1.8-19.9,5.8c-5.4,4-9.4,7-12.5,8.4c-3.2,1.4-5.9,8.4-11.5,14.2s-8.1,13.6-6.3,19.4
			c1.7,5.5,2.9,11.1,3.7,16.8"/>
		<path id="Forme_125" class="st1" d="M-3256-2655.8c0,0-7.2-9.2-9.4-2.6s-1.1,11.2,1,14.2s6.4,10.8,7.8,11c1.5,0.2,2.9,0.6,3.7-2.6
			"/>
		<path id="Forme_126" class="st1" d="M-3257-2633.1c0,0,2.1,9,6.8,13.1"/>
		<path id="Forme_127" class="st1" d="M-3253.4-2634.2c0,0,8.2,23.7-0.5,33.6"/>
		<path id="Forme_128" class="st1" d="M-3252.3-2636.9c0,0,3.1,16.7,6.8,20.4s4.7,5.3,8.4,7.3"/>
		<path id="Forme_129" class="st1" d="M-3189.6-2593.4c-1.6,1.2-3,2.6-4.2,4.2c-1.7,2.4,0,2.6,0,2.6s2.7,23.5-24,25.2
			c0,0-20.3-9.3-23-11c-0.4-0.7-21.8-23.4-11-33"/>
		<path id="Forme_130_1_" class="st1" d="M-3250.8-2620.1c0,0-12.3,1.1-24.6,24.1h-9.4c0,0-2.3-1.4-4.7,2.1s-0.1,1.8-0.5,2.6
			c-0.4,0.9-2.9,3.7-3.1,6.3c0,0-4.8,2.9-1.6,8.9"/>
		<path id="Forme_131_1_" class="st1" d="M-3178.1-2606.4c3.3,2.7,5.7,6.3,6.8,10.5c0,0,5.5,2.8,10.7,7.7"/>
	</g>
	
		<linearGradient id="Soustraction_4_1_" gradientUnits="userSpaceOnUse" x1="-7209.8853" y1="311.9758" x2="-7209.0312" y2="311.6438" gradientTransform="matrix(96.138 0 0 103.973 689880.5 -35099.9609)">
		<stop  offset="0" style="stop-color:#4663FF"/>
		<stop  offset="1" style="stop-color:#17A8D3"/>
	</linearGradient>
	<path id="Soustraction_4" class="st2" d="M-3251.5-2621l-1.1-1.1c-1.3-1.1-3.5-5.7-6.2-12.9c1.2,1.7,2.3,2.5,3.3,2.5s2-0.9,2.9-2.6
		v0.7C-3252.6-2630.6-3251.5-2621.4-3251.5-2621L-3251.5-2621z M-3249.8-2655.5c-1.5,0-3.9-2.4-3.9-2.4c-0.2-0.2-0.5-0.4-0.8-0.5
		c-1-0.4-2-0.6-3.1-0.6c0.6,0.6,1.1,1.4,1.6,2.2c-1-1-4.6-4.3-7.1-4.3c-1.4,0-2.3,1-2.6,3c0,0.2-0.1,0.5-0.1,0.8
		c-0.1-0.5-0.2-1.1-0.2-1.6c0.1-1.6-1-4.5-2.3-7.7c-1.5-3.8-3.2-8.1-3.2-11.3c0-5.5,1.3-8.2,3-11.6l0.3-0.7
		c1.3-2.7,5.1-7.3,7.7-10.4c1.1-1.4,2-2.4,2.4-3c0.5-0.7,1.2-1.8,1.9-2.9c0.8-1.3,1.6-2.5,2.5-3.8c0.2-0.2,1.7-1,3.4-1.8
		c2.7-1.4,6.2-3.2,6.6-3.8c1.4-1.3,3-2.5,4.6-3.5c1.6-1.1,4.6-2.9,6.5-3.2c2.1-0.4,12.5-2.1,17.9-2.2h0.4c4.9,0,13.8,1.5,17.5,3.4
		c3.6,1.8,21.1,11.1,21.2,11.2h-7.8l5.6,6.7c-1.5-1-6.7-1.1-6.7-1.1c-0.3,0.2-0.6,0.5-0.6,0.9c-0.3,2.5,6.1,8,6.2,8.1h-3.4l6.7,5.6
		h-4.5l4.4,4.4c-0.4-0.4-0.9-0.6-1.4-0.6c-1.5,0-3,1.8-3,1.8c-1-3.6-2.2-7.1-3.9-10.5c-2.1-4.6-4-7.8-5.1-8.5
		c-0.4-0.2-0.9-0.4-1.3-0.3c-3.1,0-8.7,3.7-8.7,3.7c-7-3.3-14.6-5.1-22.3-5.2c-5.3,0-10.5,1-15.3,3c-1.9,0.8-3.7,1.8-5.4,3
		c-1.2,0.9-2.3,2.1-2.9,3.5c-1,1.8-1.8,3.7-2.5,5.6c-1.5,4.2-2.2,8.3-1.9,10.3c0.4,1.8,1.3,3.3,2.8,4.4c0.7,0.6,1.4,1,2.2,1.4
		c-3.1,4.5-5,12-5,12.1l2.2,3.3c-0.5,1.3-1.2,2.4-2.2,3.3C-3249.4-2655.6-3249.6-2655.5-3249.8-2655.5L-3249.8-2655.5z"/>
</g>
</svg>
