<?xml version="1.0" encoding="utf-8"?>
<!-- Generator: Adobe Illustrator 22.1.0, SVG Export Plug-In . SVG Version: 6.00 Build 0)  -->
<svg version="1.1" id="Calque_1" xmlns="http://www.w3.org/2000/svg" xmlns:xlink="http://www.w3.org/1999/xlink" x="0px" y="0px"
	 viewBox="0 0 142 170" style="enable-background:new 0 0 142 170;" xml:space="preserve">
<style type="text/css">
	.st0{opacity:0.8;}
	.st1{fill:none;stroke:#76777E;}
	.st2{fill:url(#SVGID_1_);}
	.st3{fill:#FF009B;}
</style>
<g id="Visage" class="st0">
	<path id="Forme_115" class="st1" d="M111.3,52.1c5.7,7.5,4.2,21,4.2,21c0.1,3.7-0.2,7.5-0.7,11.2c-0.6,4.1-0.9,8.2-1,12.3
		c-0.2,2.9-1,4.5-2.8,7.7s-3.1,4.1-3.8,7.4s-1.1,7.4-9.4,9.8s-15.8,1.4-19.2,0c-3.8-1.4-7.6-2.6-11.5-3.5c-3.8-1-16.6-5-20.9-26.6
		c0,0-1.7,7.6-6.3,3.5c-1.3-1.7-2.3-3.6-3.1-5.5"/>
	<path id="Forme_116" class="st1" d="M106,115.1c-0.6,9,5.9,12.3,5.9,12.3c-2.4-7,18.1-40.5,19.2-51.8s-8.8-53.9-35.6-68.3
		C73.2-4.7,52.9,5.6,52,5.8c-12.3-7.5-24.9,14.8-28.4,26S8.8,71.3,6.9,78.7c-2.9,13,4.5,25.9,4.5,25.9c0.4,30.1,16.4,26.6,16.4,26.6
		c4.1,11.1,17.8,15.4,17.8,15.4c-0.6-0.9-3.1-7-3.1-7c3.6,5,12.2,6,12.2,6c-2.2-1.9-4-4-5.6-6.4 M114.4,42.3
		c4.4,6.4,9.1,34.3,9.1,34.3C117.2,51,91.4,29.7,91.4,29.7c12.2,20.8,18.2,57.4,18.2,57.4c-8.3-44.9-47.1-70.7-47.1-70.7
		s-2.7,21.3,14.3,44.5c0,0-19.9-13.4-24.4-36.8c-9,18.3-14.3,38.3-15.6,58.7c-0.2,3.7-1.1,12.2,0.2,17.6"/>
	<path id="Forme_118" class="st1" d="M49.5,139.6c5.1,3.2,15.7-1.4,15.7-1.4c-5.5-1.6-9.8-5.8-11.5-11.2c0,0-2.6-19.5-5.2-26.3"/>
	<path id="Forme_119" class="st1" d="M100.4,120.7c0,0-5.1,9.6-4.2,14.7"/>
	<path id="Forme_120" class="st1" d="M111.9,123.2c0,0,11,16.3-2.8,35.4s-41.4,15.1-64.6-12.3"/>
	<path id="Forme_121" class="st1" d="M115.1,113.7c0,0,16.4,1.7,26.5,10.2"/>
	<path id="Forme_122" class="st1" d="M15.6,124.6c0,0-9.5,8.2-13.3,13.7"/>
</g>
<linearGradient id="SVGID_1_" gradientUnits="userSpaceOnUse" x1="38" y1="103.3742" x2="122.4" y2="103.3742" gradientTransform="matrix(1 0 0 -1 0 172)">
	<stop  offset="0" style="stop-color:#EF3F7C"/>
	<stop  offset="1" style="stop-color:#FF009B"/>
</linearGradient>
<path class="st2" d="M121.7,49.3c0,0-10.9-1.3-18.2,1.1c-7.3,2.4-11.7,5.4-13.3,8.4c0,0-8.9-0.2-12.6,3.5c0,0-4.2-4.2-15.4-1.8
	c-7.2,1.7-14.1,4.3-20.6,7.7l-3.1-1.1L38,72.4l4.2,2.1c2.6-0.1,4.9,1.5,5.9,3.9c2.1,4.3,5.8,10.8,15.4,9.8c9.5-1,16.2-6.4,17.1-10.5
	l0.3-11.2c0,0-1.1-1.1,0.7-2.1c1.8-0.8,3.7-1.4,5.6-1.8c0,0,4-1.1,3.1,1.8c-0.9,2.9,0.7,3.9,0.7,3.9s5.2,9.6,13.3,9.1
	s14.5-6.1,15-11.9s-0.7-9.8,1-10.2c0.8-0.1,1.6-0.4,2.1-1.1C122.4,54.2,121.7,49.3,121.7,49.3z M72.2,83.6
	c-3.7,2.3-12.6,3.9-17.1,0.7c-3.6-2.9-5.8-7.3-5.9-11.9c-0.3-7.5,14.4-10.2,19.7-10.2c5.3,0,9.1,4.3,9.6,9.5
	C79.2,78.6,76.6,80.8,72.2,83.6z M104.3,75.2c-1.9,0-9.9-0.9-11.2-9.8c0-3.3,0.5-7.6,4.5-9.8c3.9-2.1,8.2-3.4,12.6-3.9
	c6.5,0,7.7,7.4,7.7,11.6C117.8,69.6,110.7,75.2,104.3,75.2z"/>
<path id="Forme_123" class="st3" d="M100.8,51"/>
</svg>
