<svg xmlns="http://www.w3.org/2000/svg" viewBox="0 0 142 182" enable-background="new 0 0 142 182"><style type="text/css">.st0{fill:none;stroke:#76777E;} .st1{fill:url(#Union_25_1_);}</style><g id="Groupe_329" transform="translate(3297.008 2432.193)"><g id="Groupe_181"><path id="Forme_69_1_" class="st0" d="M-3165.292-2398.107s6 10.6 3.5 22.9c0 0 .5 6.1.6 10.6.1 4.8-.5 8.7-3.5 12.3 0 0-3 3.3-2.9 5.3 0 0 .1.4-1.8 1.8-1.9 1.7-3.2 4-3.5 6.5-.1 1.4-.1 2.7 0 4.1.2 1 4.5 8.1-4.7 8.8 0 0-.5 3.7-1.2 7.1s-1.7 7.5-4.7 10.6c-3 3.1-8.8 10.6-8.8 10.6s.4 17-22.3 8.8c0 0-28.6-13.1-31.8-24.7"/><path id="Forme_71_1_" class="st0" d="M-3271.092-2318.707s-.5 8.6-18.8 16.5c0 0 9.3-2 22.9 15.3 13.6 17.3 25.1 23 26.5 24.1 1.4 1.1 14.2 10 14.7 11.8 0 0 2.7-12.5-3.5-15.9"/><path id="Forme_72_1_" class="st0" d="M-3228.792-2261.707s-5.7-9.6 13.5-27.6"/><path id="Forme_70_1_" class="st0" d="M-3262.692-2345.607c2.2 1.8 6.7 3.8 10.8 5"/></g><linearGradient id="Union_25_1_" gradientUnits="userSpaceOnUse" x1="-3298.834" y1="-2270.022" x2="-3299.156" y2="-2269.784" gradientTransform="matrix(142.281 0 0 -113.894 466134.875 -260913.031)"><stop offset="0" stop-color="#17A8D3"/><stop offset="1" stop-color="#4663FF"/></linearGradient><path id="Union_25" class="st1" d="M-3265.8-2336.2c-.9 1.4-2.5 4-5.4 3.4-3.6-.7-8.8 2.3-8.8 2.3-5.3-7.8 1.2-12.9 1.2-12.9-2.5-1.2-8.2 5.3-8.2 5.3-12.3-3.4-5.3-6.9-7.7-12.2-2.4-5.3 2.4-10 2.4-10l-4.7 2.9c2.3-11.8 15.9-16.5 15.9-16.5-3.4-1.4-10.6 4.1-10.6 4.1 9.5-12.1 18.4-7.1 19.3-6.6.2-2.7.7-5.5 1.3-8.1.4-1.5.6-3.1.6-4.7-.2-1.8.2-2.9 1.8-3.5.2-1.2 5.9-32 39.4-38.2 28.6-5.2 57.1 8 65.7 31.9.7 1.9 1.9 2.9 3.1 5.1.1.1 3.7 3.3 5.2 4.6-3-2.3-3.9-1.9-3.8-1.3.7 1.9-.1 4-1.9 4.9 0 0-4.6-14.1-7.1-15.3 0 0-2.5-1.6-5.9-3.5-2.2-1.2-5.4-1-9.4-.7-2.5.2-5.1.2-7.7.1-7.7-.4-20-5.3-26.5.6-6.5 5.9 4.7 21.2 4.7 21.2s-18.9 7.1-26.5 31.7c0 0-2.3-11.3-1.8-14.7 0 0-8.9 1.6-10.6-7.6 0 0-3.7-9.4-11.2-4.1s-5.3 7.8-5.3 11.8c0 4-1.1 12.4 6.1 19.9 0 0 2 26.6-8.2 28.2 1.8-6 3.4-12 4.6-18.1zm110.5-53.1l.1.1c.3.3.5.4.5.4s-.3-.2-.6-.5z"/></g></svg>