<?xml version="1.0" encoding="utf-8"?>
<!-- Generator: Adobe Illustrator 23.0.4, SVG Export Plug-In . SVG Version: 6.00 Build 0)  -->
<svg version="1.1" id="Calque_1" xmlns="http://www.w3.org/2000/svg" xmlns:xlink="http://www.w3.org/1999/xlink" x="0px" y="0px"
	 viewBox="0 0 133.2 164" style="enable-background:new 0 0 133.2 164;" xml:space="preserve">
<style type="text/css">
	.st0{fill:url(#SVGID_1_);}
	.st1{fill:none;stroke:#76777E;}
</style>
<linearGradient id="SVGID_1_" gradientUnits="userSpaceOnUse" x1="22.2579" y1="113.2731" x2="99.3397" y2="143.2421" gradientTransform="matrix(1 0 0 -1 0 166)">
	<stop  offset="0" style="stop-color:#4663FF"/>
	<stop  offset="1" style="stop-color:#17A8D3"/>
</linearGradient>
<path class="st0" d="M112.3,27.7c0,0-3.8,0-4.5-1.4l1,0.2c0,0-0.7-0.7-1.5-1.7l0.3-0.2c-0.4,0-0.8-0.5-0.8-0.5l0,0l0.6-0.5
	c-0.4-0.2-1.2-0.6-1.8-1c-0.2-0.3-0.4-0.5-0.6-0.8l0.7-0.1l-0.8-0.1c0-0.1-0.1-0.1-0.2-0.2l0.4-0.5c-0.2,0-0.9-0.2-1.4-0.4
	c-0.1-0.1-0.2-0.2-0.3-0.3l0.7-0.5c-0.1-0.1-0.9,0-1.4,0l-0.1-0.1l0.6-0.4c-0.2,0.1-0.6,0.1-1,0.2c-0.2-0.1-0.3-0.3-0.5-0.4l0.8-0.5
	l-1.9-0.3l0.4-0.4h-0.8l0.5-0.4h-1.1c-0.1-0.1-0.3-0.2-0.4-0.3l0.4-0.8l-1.2,0.2c-0.1-0.1-0.3-0.2-0.4-0.3l0.4-0.9l-0.9,0.6
	c-0.1-0.1-0.2-0.1-0.3-0.2c0.3-0.8,0.9-1.2,0.9-1.2L96.3,15l0.9-0.8c-0.2,0-1,0.3-1.4,0.5c-0.1,0-0.1-0.1-0.2-0.1l0.3-0.6
	c-0.7,0.3-2.1-0.6-2.1-0.6l0.4-1l-2.4,0.4c-0.8-0.2-1.4-0.4-1.4-0.4l0.4-1.1c0,0-1,0.3-2.1,0.2c-0.2-0.6-0.2-2-0.2-2
	c-0.1,0.3-0.8,1.2-1.2,1.6c-0.1,0-0.2-0.1-0.3-0.1v-0.4c-0.1,0.1-0.3,0.2-0.6,0.2c-0.3-0.1-0.7-0.2-1.2-0.3L85,10.3
	c0,0-0.1,0.1-0.2,0.1c-0.2,0-0.4-0.1-0.6-0.1L84,9.9L82.4,10c-0.3-0.1-0.7-0.1-1-0.1l0.7-0.8l-1.8,0.6c-0.1,0-0.1,0-0.2,0l0.7-0.6
	l-1.6,0.5l0.1-0.5l-0.6,0.4c-0.1,0-0.2,0-0.3,0l-0.2-0.7l-0.8,0.6l-0.3-0.1l-0.6,0.1c-0.6,0-1.2,0-1.8-0.1V9.2l-1.5,0.1
	c-0.9,0-1.7,0-2.6,0.1l-0.5-0.2l-0.9,0.3l0,0c-0.5,0-1,0.1-1.5,0.2l-0.1-0.2L67,9.8c-0.2,0-0.4,0.1-0.6,0.1l-0.2-0.3
	c0,0-0.6,0.3-1.3,0.6c-0.7,0.1-1.4,0.2-2,0.3c0-0.2,0-0.5,0-0.5c-0.3,0.1-0.6,0.4-0.9,0.7c-0.4,0.1-0.9,0.2-1.3,0.2
	c-0.4-0.2-0.7-0.5-0.7-0.5c-0.3,0.1-0.5,0.5-0.6,0.8c-0.4,0.1-0.8,0.2-1.1,0.3c-0.3-0.1-0.5-0.2-0.5-0.2c0,0.1-0.2,0.3-0.4,0.4
	c-0.3,0.1-0.6,0.2-0.9,0.2l-0.3-0.2l0,0.3c-0.1,0-0.2,0.1-0.3,0.1l-0.3-0.4c-0.1,0.2-0.5,0.5-1,0.7c-0.7,0.2-1.3,0.4-1.9,0.6
	l-0.4-0.5c0,0.3-0.3,0.6-0.6,0.8c-0.4,0.1-0.7,0.2-0.9,0.3h-0.5l-1.1,0.6h-0.5l-0.3,0.5c0,0-0.2,0.1-0.3,0s-0.3,0-0.3,0V15l0,0
	c-0.1,0-0.2,0.1-0.3,0.1L46.9,15c0,0,0,0.2,0,0.5c-0.2,0.1-0.5,0.3-0.7,0.4l-0.3-0.1l-0.1,0.3c0,0,0,0-0.1,0
	c-0.2,0.1-0.5,0.3-0.7,0.4c-0.1,0.1-0.5,0-0.5,0s-0.1,0.4-0.3,0.5c-1.5,0.9-2.7,1.8-3.2,2.2c-1.2,1,0.3-1.1,0.3-1.1l-2.2,2.7
	c0,0-1-0.1-2,0.1c0,0,1.3,0.5,1.1,0.8s-1.4,0.7-1.6,1l0.6,0.1l-0.3,0.3l0,0c-1.7-0.3-1.7-0.3-1.7-0.3s0.7,0.8,0.6,1.4l-0.2,0.2
	c-0.3,0-1-0.8-1-0.8s0.5,1.3,0.3,1.5s-1.5-0.4-1.5-0.4s0.4,1.1,0.2,1.7c0,0-1-0.2-1.1-0.4l0.4,1.1l-0.2,0.2C32.4,27,32,26.7,32,26.4
	V28l-0.3,0.3c-0.2,0-0.5,0-0.7-0.3l-0.2,0.3h-0.5c0,0,0.2,0.5,0,1s-0.6,0.8-0.8,0.8c0,0,0,0.2,0,0.5c-1.3,1.7-3,4.3-4,8.2
	c-0.1,0.3-0.2,0.7-0.3,1c-0.2,0.4-0.4,0.7-0.5,0.7l0.3,0.2c-0.1,0.5-0.2,0.9-0.4,1.4c-0.3,0.5-0.7,1.1-0.8,1.1c-0.2,0.1,0.5,0,0.5,0
	s-0.5,1.9-0.8,2.3c0,0,0.1,0,0.3,0c-0.1,0.3-0.2,0.7-0.2,1c-0.3,0.2-0.5,0.3-0.5,0.3h0.4c-0.1,0.3-0.1,0.6-0.2,0.9L23,48h0.2
	c0,0.1,0,0.2-0.1,0.4l-0.5,0.4h0.7c-0.1,0.5-0.2,1-0.2,1.6l0,0l0,0c-0.5,2.7-0.6,5.6-0.5,8.7c-0.2,1-0.3,1.7-0.4,1.8l0.6,0.3
	c0,0.5,0.1,0.9,0.2,1.4c-0.1,0.3-0.2,0.6-0.4,0.7l0.6,0.4l0,0c0,0.1,0,0.2,0,0.3c0,0,2.4-8.3,12.8,3.3c0,0,4.8,4,5.1,6.5L42,71
	c0,0,0.7,0.5,0.8,0.8c0.2,0.2,1.4-0.2,1.8-0.2s1.1-0.2,1.5,0.3s0.6-2,0.2-4c-0.5-2-1.1-3.4-0.5-5.2c0.7-1.7,8.3-12,9.8-13
	c0,0-2.4-0.2-3.1,0.2c0,0,1.6-5,4.1-7.1l-4.1,1.7c0,0,4.1-9.8,4.3-13.6c0,0,2,0.3,1.9,1.1v-3.7l4.3,3.4v-3.4c0,0,1.3,1.5,1.5,1.7
	s0.8-1,0.8-1.7s1.3-0.6,1.4,0s1.3-0.5,1.3-0.5s10.8-2.5,12.2-2v-0.9c0,0,2.7,0.6,3.2,1c0,0-0.1-0.3,0-1c0,0,3,0.5,4.7,0.7
	s5.5-0.9,7.7-0.7c2.3,0.2,6.6,1.6,7.3,2c0.7,0.5,4.3,0.3,6.3,3.3c0,0,0.7,0.8,0.8,1.5c0,0-0.1-0.6,0-0.9c0.1-0.2,1,0.2,1.1,0.6
	c0,0-1.5-3-1.9-3.5C109.3,27.8,111.7,28.1,112.3,27.7z"/>
<g>
	<path class="st1" d="M36,67.3c0,0-5.7-6.4-8.6-6.4c-3,0-4.5,3.2-5,5.2s-1.1,4.1,0,8.9s0.5,4.8,1.1,6.4c0.7,1.6,5,8.2,7.3,10.7
		s5.5,4.2,9.1,1.9c0,0,1.6,0.2,2,2.6c0.5,2.3,2.9,13.7,7.9,18.7"/>
	<path class="st1" d="M77.1,131.6c0,0,20.1,9.9,27.3-1.3c3.9-7.3,3-6.6,3.4-13.2s0.7-6.1,1.4-9.1c0.7-3,0.9-5,1.8-9.1
		s3.6-6.8,4.1-10.8s-0.7-7.3-0.9-8.8s-1.4-4-1.1-5.6s0.7-4.5,2-6.4c1.4-1.8,2.2-5.1,2.2-6.4c0-1.3-2.1-6.7-2.7-7.8
		c-0.6-1.1-5-17.8-5.2-18.9c-0.2-1-2.4-5.2-3.5-6"/>
	<path class="st1" d="M84.8,136.7c0,0-4.4,8.4-6.2,16.8c0,0-2,4.8-10.3,5s-10.6,0.7-25.6-10.9c-15-11.6-21.7-17.7-20.8-22.2
		c0,0,6.6-5.5,7.4-7.1c0.8-1.6,3.3-8.4,3.6-9.9s2.2-0.8,2.3-4.5c0.1-3.8-0.3-9.1-0.3-9.1"/>
	<path class="st1" d="M25.1,122.6c0,0-4.7-1-10,4.2c-5.2,5.1-4.3,1.4-4.3,3.6c0,0-14.3,10.4-21.8,12.9s-24.3,6.9-27,21"/>
	<path class="st1" d="M91.7,136c0,0,2,1.3,6.7,3.5c4.7,2.3,14.7,8,15.2,11.4c0.5,3.4,5,12.4,4.7,13.2"/>
	<path class="st1" d="M15.1,131.6c0,0,15,25.2,27,30.5s18.9,10.2,30,6.4c11.1-3.9,13.6-15.4,12.6-22.5s-2.2-4.4-2.2-4.4"/>
</g>
</svg>
