<?xml version="1.0" encoding="utf-8"?>
<!-- Generator: Adobe Illustrator 22.1.0, SVG Export Plug-In . SVG Version: 6.00 Build 0)  -->
<svg version="1.1" id="Calque_1" xmlns="http://www.w3.org/2000/svg" xmlns:xlink="http://www.w3.org/1999/xlink" x="0px" y="0px"
	 viewBox="0 0 156.5 202.6" style="enable-background:new 0 0 156.5 202.6;" xml:space="preserve">
<style type="text/css">
	.st0{fill:none;stroke:#76777E;stroke-miterlimit:10;}
	.st1{fill:url(#Soustraction_5_1_);}
</style>
<g id="Groupe_331" transform="translate(3532.876 2978.654)">
	<g id="Groupe_247">
		<path id="Tracé_282" class="st0" d="M-3405.9-2941c5.3,3.1,9,18.4,10.2,20.9s1.8,5.2,1.9,8c0,2.8-2.6,6-2.6,6s-0.6,0.1-0.1,0.4
			c1,0.7,2.3,0.8,3.4,0.4c0,0,0.1,1.2-2.8,0.7c0,0-1.4-0.6-1.6,0.1c-0.1,0.6-0.3,1.3-0.7,1.8c0,0,1,4.4,1.7,6.1
			c0.7,1.7,1.7,5.2,1.1,7.5c0,0,1.3,3.4,1.3,3.8c0,1-0.2,2-0.8,2.8c-0.8,1-2,0.6-2.2,2.9c-0.4,3-1.2,6-2.4,8.7
			c-1,1.9-2.4,5.8-2.4,7.7s0.7,10.4-5.9,12.6c-6.7,2.2-14.5-0.8-24.1-4.7"/>
		<path id="Tracé_283" class="st0" d="M-3455.9-2878.9c-0.2,1.7-1.3,3.1-3,3.6c-4.8,1.5-7.2-1.9-7.2-1.9"/>
		<path id="Tracé_284" class="st0" d="M-3424.4-2851.9c-1.7,1.1-3,2.7-3.8,4.6c-1.3,3-4.1,8.7-5.2,11.3c-1.1,2.5-0.9,8.7-0.9,8.7"
			/>
		<path id="Tracé_285" class="st0" d="M-3431.5-2840.2c0,0,3,12.7-2.9,17.5c0,0-11.6,1.6-17.8-1.3"/>
		<path id="Tracé_286" class="st0" d="M-3500.9-2840.2c-4.6,3.9-9.5,7.6-14.6,11c-6.1,3.9-11.6,13.8-12.6,16.8"/>
		<path id="Tracé_287" class="st0" d="M-3515.7-2805.6c0,0,16.8,5,22.4,14.3"/>
		<path id="Tracé_288" class="st0" d="M-3455.9-2880.1c0,0,4.1,11,6,11.8"/>
	</g>
	
		<linearGradient id="Soustraction_5_1_" gradientUnits="userSpaceOnUse" x1="-7672.3877" y1="333.2263" x2="-7672.0737" y2="333.8283" gradientTransform="matrix(148.696 0 0 219.531 1137366.625 -76090.2344)">
		<stop  offset="0" style="stop-color:#EF3F7C"/>
		<stop  offset="1" style="stop-color:#FF009B"/>
	</linearGradient>
	<path id="Soustraction_5" class="st1" d="M-3377.2-2748.9c0.2-0.1,0.4-0.3,0.5-0.5C-3376.7-2749.3-3376.8-2749.1-3377.2-2748.9z
		 M-3395.3-2775.5h-3.2c-0.1-0.4-0.1-0.6-0.1-0.7l-0.3,0.7h-1c0.4-0.9,0.7-1.6,0.7-1.7l-4.4-5c0.3,2.2,0.4,4.5,0.3,6.8h-0.4v-2.3
		c-0.1-0.2-4.1-5.7-4.1-5.7c0.4,2.8,3.1,6.9,4,8h-0.9c-2.1-3-6.2-8.7-6.2-8.8c-0.3,3,0.2,6,1.3,8.8h-0.6c-0.8-2.2-1.5-4.5-1.9-6.8
		c0.2,2.3,0.6,4.6,1.2,6.8h-1.4c-1.2-4.5-1.9-9.1-2.3-13.8c-0.9-1.3-1.5-2.8-1.6-4.4c-0.2-2-0.3-3.9-0.2-5.9c0.1-2.5,0.4-5,0.8-7.4
		c-0.1-0.4-4.9-9-5.9-10.7v-0.1c2.4,6.9,1.7,11.7,0.8,18.4c-0.3,1.8-0.5,3.6-0.8,5.7c-0.4,3.8,0.1,7.5,1.3,11.1
		c0.8,2.4,1.8,4.8,3,7.1h-0.1c-1.5-2.5-2.7-5.2-3.5-8.1c-1.4-4.8-1.6-9.9-0.8-14.8c0.8-4.4,1-9,0.6-13.5c-0.3-2.4-0.9-4.8-1.7-7.1
		c-0.2-0.7-0.5-1.4-0.7-2c-1-3.7-7-19-7.1-19.2l-0.4-0.8c0.5-1.1,2.9-6.4,3.6-7.7c0.9-1.3,1.9-2.4,3.1-3.4c0,0,2.3,1.3,8.3,2.2
		c1.2,0.2,2.4,0.3,3.6,0.3c1.8,0.1,3.7-0.3,5.3-1.1c0,0.1,0.5,7.7,2.6,11.5c1.3,2.8,2.1,5.8,2.3,8.9c0.4-2,0.5-5.9-1.1-13.2
		c-1-4.4-2.2-7.9-2.2-8c2.1-1.1,3.2-5.3,3.3-5.3c-0.2,1.5,0.3,5.4,1.4,10.1c1,4.4,2.3,8.7,4.1,12.9c3.1,6.9,3.7,13.3,2.8,15.3
		c-0.7,1.7-2.7,6.6-3.1,7.5c0.9,2,11,7.8,11.4,8c-2.3-0.1-11.1-6.9-11.2-7c0.7,2.1,1.6,4.2,2.6,6.2c1.6,3.4,3.6,7.6,4.9,11.2
		c1.8,5,1.9,12.9,1.7,17.1h-4.7c-0.4-0.5-0.6-0.9-0.6-0.9v0.9h-1.2c-0.8-1.6-1.9-3-3.2-4.1
		C-3397.3-2778-3396.6-2776.5-3395.3-2775.5L-3395.3-2775.5z M-3409.5-2796.5c0.1,4.2,1.1,8.2,2.8,12c0.8,1.7,1.7,3.4,2.8,4.9
		c0-1.5-0.2-2.9-0.5-4.4c-0.8-0.9-2.2-4.2-3.1-6.7C-3408.6-2793.6-3409.4-2796.3-3409.5-2796.5z M-3396.7-2805.7
		c-0.2,0-0.4,0-0.4,0.2c-0.1,0.4,0.4,1.2,1.7,2.4c0.9,0.9,2.4,3.3,4.5,9.8c1.2,3.8,2.1,7.3,2.1,7.5c0-4-2.1-9.1-3.8-12.7
		c-1.1-2.5-2.4-4.9-3.9-7.1C-3396.5-2805.7-3396.6-2805.7-3396.7-2805.7L-3396.7-2805.7z M-3397-2804.1c0.2,1.2,0.6,2.3,1.2,3.3
		c0.9,1.7,4.8,11.7,4.8,11.8C-3391-2792.5-3396.9-2803.9-3397-2804.1z M-3414.7-2802.7c-0.5,1.1-0.9,2.2-1.1,3.4
		c-0.5,2.8-0.1,5.7,1.1,8.3v-0.1c0-2.3,0.1-4.6,0.3-6.9c0-0.1,0-0.3-0.1-0.5C-3414.6-2799.8-3414.7-2801.2-3414.7-2802.7z
		 M-3399.9-2808.5c-0.6,0.4-0.4,1.4-0.4,1.5c0.5,0.4,2.2,4.9,2.3,5.1c-0.2-1.5-0.5-2.9-1-4.3
		C-3399.3-2806.9-3399.6-2807.7-3399.9-2808.5L-3399.9-2808.5z M-3398-2828.8c0,0.6-0.5,14.8-1,15.6l0.1,0.1c0.7,1.1,1,1.7,1.1,1.8
		c0.3-1.6,0.5-3.1,0.7-4.7c0-0.2,0.1-0.6,0.1-1.2C-3396.7-2820.5-3395.9-2827.9-3398-2828.8L-3398-2828.8z M-3399.4-2837.4
		c0,0.1,4.1,10.7,4.1,15.3c0,2.5-0.4,4.9-1.1,7.3c-0.2,0.6-0.3,1.2-0.3,1.8c0,0,1-2.6,1.2-3.5c0.1-0.2,0.1-0.4,0.2-0.7
		c0.8-1.9,1-3.9,0.7-5.9l-0.2-1.5C-3395.1-2827.4-3395.3-2829.7-3399.4-2837.4L-3399.4-2837.4z M-3399.9-2829.3
		c-0.1,0.3-1.3,7.7-1.2,9.6c0.2,1.5,0.5,3.1,1,4.5C-3400-2815.4-3398.8-2827.4-3399.9-2829.3z M-3512.9-2775.5h-1.5
		c-1-1.8-2.1-3.5-3.3-5.1c-3.2-4-5.5-8.6-6.9-13.6c-0.7-2.6-0.9-5.2-0.8-7.9c0.2-2.7,1-5.4,2.4-7.7c2.8-4.7,7-8.4,11.9-10.7
		c4.1-2,8.6-3.4,13.1-4.1c2-0.1,3.9-1.2,5.2-2.8c0.8-1.3,1.1-2.8,0.9-4.3c-1.8-0.6-3.5-1.3-5.1-2.2c-1.4-0.8-2.6-1.7-3.6-2.9
		c-1.1-1.2-1.7-2.6-1.8-4.2c-0.1-3,0.6-6,2-8.7c0.7-1.4,1.4-2.6,2.4-3.8c-0.1-0.4-3.2-9.6-2.8-13.7c0.3-2.3,0.8-4.5,1.3-6.8
		c1.4-6,3.4-15.1,3.8-24.1c0-0.8,0.1-1.5,0.1-2.2c0-4,0.4-8,0.9-11.9c0.7-3.2,1.8-6.3,3.3-9.3l0.3-0.6c4-8.7,10.7-23.2,13.9-26.3
		c0.5-0.4,0.9-0.9,1.3-1.3c2.2-2.1,4-4,7.2-4c0.9,0,1.9,0.2,2.8,0.4c0.1-0.2,2.7-4.8,6.3-7c2.6-1.8,5.6-2.9,8.7-3.2
		c1.2-0.9,2.7-1.4,4.2-1.4c0.3,0,0.5,0,0.8,0.1c0.4,0.1,0.9,0.2,1.3,0.2c0.9,0,1.8-0.3,2.5-0.9c0.7-0.8,1-1.9,0.8-3
		c0.1,0.8,0.1,1.7,0,2.5c0.8-1,1.8-1.7,3-2.1c0.5-0.2,1.1-0.3,1.6-0.3c2.3,0.2,4.5,0.7,6.7,1.5c1.1-0.2,2.1-0.2,3.2-0.2
		c4.3-0.1,8.4,1.1,12,3.4c5,3.4,8,9.1,8.7,17c1.9,0.4,3.7,1.5,4.9,3c1.2,1.7,1.5,3.9,0.7,5.9c0,0,0.3-2.7-1.1-4.3
		c-0.7-0.8-1.7-1.2-2.7-1.1c-0.3,0-0.6,0-0.9,0.1c0.5,0.6,4.6,5.9,4.1,8.9c0-0.1-3-5.3-4.4-6.3c-1.3-0.9-5.6-3.6-5.8-3.7
		c0.2,0.2,0.7,0.8,0.7,1c0,0.1-0.1,0.1-0.2,0.1h-0.1c-0.2,0-0.4-0.3-0.8-0.6c-1.2-1.4-3-2.3-4.8-2.5c-0.8-0.1-1.4-0.2-2-0.3
		c-0.7-0.1-1.1-0.2-1.3-0.2h-0.2v0.4c0,0.1-0.1,0.1-0.2,0.1c-0.3,0-0.6-0.1-0.9-0.2l-0.7-0.2c-1-0.3-2-0.4-3-0.4
		c-0.7,0-1.5,0.1-2.2,0.2c-0.7,0.2-1.4,0.2-2.1,0.2c-0.6,0-1.1,0-1.6-0.1h-0.2c-0.4,0-0.7-0.1-1-0.1s-0.6,0.1-0.8,0.3
		s-0.2,0.7,0,1.4c0.5,1.9,0.5,3.9,0.1,5.8c-0.6,2.7-1.9,5.3-3.8,7.3c-3.1,3.6-5.8,7.5-8.2,11.6c-0.6,0.9-1,1.7-1.4,2.2
		c-1.4,2.1-2.1,2.7-4.8,5.2l-0.1,0.1c-0.4,0.4-0.9,0.8-1.4,1.3c-1.6,1.5-4.5,4.9-6.1,11.7c-1.8,7.5-1.5,16.9,0.8,27.9
		c1.9,9.1,3.6,15.9,4.9,21.3c2.4,9.5,3.5,14.3,2.6,18.4c-0.1,0.3-0.1,0.6-0.2,1c-1.6,6.2-2.2,12.5-2,18.9c0.6,9.8,4.2,18,10.7,24.1
		c4.7,3.6,8.9,7.8,12.5,12.5h-4c-1.1-0.9-2.4-1.8-3.7-2.7c0.6,0.8,1.1,1.7,1.4,2.7h-1.4c-0.7-2.6-2-5.1-3.6-7.3s-4-3.6-6.7-4
		l4.2,11.3h-25.4c-0.2-0.2-0.3-0.4-0.4-0.5v0.5h-9.8c-0.7-3-1.6-8.1-2.6-13.5v-0.1c-2-10.9-4.2-23.3-5.9-27.1v0.1
		c-0.4,2.7-2.6,16.3-4,18c0.8-2.9,1.5-5.8,2-8.7c0.7-4.5,1.3-10.8,0-15.4c-1.7-0.2-3.5-0.3-5.2-0.3c-3.6,0-7.2,0.4-10.7,1.3
		c-4.3,1-8.2,3.1-11.5,6c-10.7,9.5-7.3,19.8-4.3,25.1C-3519.9-2788.9-3516.3-2782.4-3512.9-2775.5L-3512.9-2775.5z M-3477.4-2798.4
		c-0.1,2.1,0,4.2,0.2,6.3c0.4,3.1,1.3,7.4,3.6,9.8L-3477.4-2798.4z M-3449-2793.7c0.1,0.1,5.5,7.2,6.8,7.9c-0.6-1.1-1.2-2.1-1.9-3.1
		C-3445.4-2790.8-3447.1-2792.5-3449-2793.7L-3449-2793.7z M-3469.7-2801.1c0.1,0.2,1.9,5.7,3.1,7.4c0,0,0.7-3.8-0.9-6
		C-3467.9-2800.4-3468.8-2800.9-3469.7-2801.1L-3469.7-2801.1z M-3493.3-2877.9c-1.4,1.5-2.4,3.3-3,5.3c-0.6,2.1-0.9,4.3-0.7,6.5
		c0.3,3.1,1.1,6.1,2.5,9c-0.1-1.5-0.5-9.1,0.5-12.7C-3493.4-2872.5-3493.1-2875.2-3493.3-2877.9z"/>
</g>
</svg>
