<svg width="31" height="24" viewBox="0 0 31 24" fill="none" xmlns="http://www.w3.org/2000/svg">
<path d="M21.1041 23V20.6667C21.1041 18.0893 18.8655 16 16.1041 16H6.10406C3.34264 16 1.10406 18.0893 1.10406 20.6667V23" stroke="#7E72F2" stroke-width="2" stroke-linecap="round" stroke-linejoin="round"/>
<path fill-rule="evenodd" clip-rule="evenodd" d="M11.1041 11C13.8655 11 16.1041 8.76142 16.1041 6C16.1041 3.23858 13.8655 1 11.1041 1C8.34264 1 6.10406 3.23858 6.10406 6C6.10406 8.76142 8.34264 11 11.1041 11Z" stroke="#7E72F2" stroke-width="2" stroke-linecap="round" stroke-linejoin="round"/>
<path d="M29.1041 23V20.615C29.1023 18.4412 27.4574 16.5434 25.1041 16" stroke="#7E72F2" stroke-width="2" stroke-linecap="round" stroke-linejoin="round"/>
<path d="M20.1041 1C22.4578 1.52626 24.1041 3.37831 24.1041 5.5C24.1041 7.62169 22.4578 9.47374 20.1041 10" stroke="#7E72F2" stroke-width="2" stroke-linecap="round" stroke-linejoin="round"/>
</svg>
